<svg preserveAspectRatio="none" width="100%" height="100%" overflow="visible" style="display: block;" viewBox="0 0 32 32" fill="none" xmlns="http://www.w3.org/2000/svg">
<g id="tabler-icon-user">
<rect x="1" y="1" width="30" height="30" rx="15" stroke="var(--stroke-0, #A51312)" stroke-width="2"/>
<path id="Vector" d="M12.0838 14.3974C12.0838 15.4582 12.5052 16.4756 13.2553 17.2258C14.0055 17.9759 15.0229 18.3974 16.0838 18.3974C17.1446 18.3974 18.1621 17.9759 18.9122 17.2258C19.6623 16.4756 20.0838 15.4582 20.0838 14.3974M12.0838 14.3974C12.0838 13.3365 12.5052 12.3191 13.2553 11.5689C14.0055 10.8188 15.0229 10.3974 16.0838 10.3974C17.1446 10.3974 18.1621 10.8188 18.9122 11.5689C19.6623 12.3191 20.0838 13.3365 20.0838 14.3974M12.0838 14.3974C9.73217 13.2795 9.54837 6.80363 16.0838 4.31042C21.5183 6.77125 22.9881 11.5689 20.0838 14.3974M9.93353 26.4257V25.6672C9.93353 24.6063 10.355 23.5889 11.1051 22.8388C11.8552 22.0886 12.8727 21.6672 13.9335 21.6672H17.9335C18.9944 21.6672 20.0118 22.0886 20.762 22.8388C21.5121 23.5889 21.9335 24.6063 21.9335 25.6672V26.4257" stroke="var(--stroke-0, #A51312)" stroke-width="2" stroke-linecap="round" stroke-linejoin="round"/>
</g>
</svg>
