<svg width="288" height="391" viewBox="0 0 288 391" fill="none" xmlns="http://www.w3.org/2000/svg">
<path d="M147.814 269.835C153.617 211.761 143.773 193.312 138.126 191.347C132.999 197.87 127.759 222.7 147.814 269.835C145.242 295.568 162.958 321.208 187.794 343.66C193.642 322.232 202.942 280.903 193.356 287.007C183.769 293.112 185.653 327.319 187.794 343.66C162.958 321.208 145.242 295.568 147.814 269.835Z" fill="#D52524"/>
<path d="M116.096 280.31C129.301 275.536 149.66 300.597 158.189 313.724L159.732 316.396C139.684 306.356 102.891 285.083 116.096 280.31Z" fill="#D52524"/>
<path d="M289.031 407.057C261.469 395.06 219.009 371.878 187.794 343.66M147.814 269.835C153.617 211.761 143.773 193.312 138.126 191.347C132.999 197.87 127.759 222.7 147.814 269.835ZM147.814 269.835C145.242 295.568 162.958 321.208 187.794 343.66M187.794 343.66C185.653 327.319 183.769 293.112 193.356 287.007C202.942 280.903 193.642 322.232 187.794 343.66ZM158.189 313.724C149.66 300.597 129.301 275.536 116.096 280.31C102.891 285.083 139.684 306.356 159.732 316.396L158.189 313.724Z" stroke="#D52524" stroke-width="3"/>
<path d="M204.814 401.907C203.213 369.559 196.556 364.706 193.428 366.323C191.253 372.033 190.486 387.144 204.814 401.907C205.523 416.24 216.898 421.111 231.763 421.051C233.123 407.396 234.703 381.976 230.149 389.542C225.595 397.108 229.328 413.7 231.763 421.051C216.898 421.111 205.523 416.24 204.814 401.907Z" fill="#D52524"/>
<path d="M188.967 421.973C195.532 413.408 208.251 416.757 213.79 419.503L214.815 420.151C203.464 424.328 182.403 430.539 188.967 421.973Z" fill="#D52524"/>
<path d="M290.103 406.446C274.642 413.109 250.446 420.976 231.763 421.051M204.814 401.907C203.213 369.559 196.556 364.706 193.428 366.323C191.253 372.033 190.486 387.144 204.814 401.907ZM204.814 401.907C205.523 416.24 216.898 421.111 231.763 421.051M231.763 421.051C229.328 413.7 225.595 397.108 230.149 389.542C234.703 381.976 233.123 407.396 231.763 421.051ZM213.79 419.503C208.251 416.757 195.532 413.408 188.967 421.973C182.403 430.539 203.464 424.328 214.815 420.151L213.79 419.503Z" stroke="#D52524" stroke-width="3"/>
<path d="M259.667 327.551C227.586 337.534 220.91 332.812 221.583 329.204C226.532 325.06 241.078 318.928 259.667 327.551C273.882 323.127 281.946 332.415 286.203 346.844C273.252 353.031 248.866 363.627 254.938 356.515C261.011 349.404 278.312 347.104 286.203 346.844C281.946 332.415 273.882 323.127 259.667 327.551Z" fill="#D52524"/>
<path d="M274.679 305.035C268.213 314.452 275.18 325.586 279.471 329.975L280.403 330.738C281.189 318.247 281.144 295.619 274.679 305.035Z" fill="#D52524"/>
<path d="M288.868 408.597C290.892 391.235 291.554 364.979 286.203 346.844M259.667 327.551C227.586 337.534 220.91 332.812 221.583 329.204C226.532 325.06 241.078 318.928 259.667 327.551ZM259.667 327.551C273.882 323.127 281.946 332.415 286.203 346.844M286.203 346.844C278.312 347.104 261.011 349.404 254.938 356.515C248.866 363.627 273.252 353.031 286.203 346.844ZM279.471 329.975C275.18 325.586 268.213 314.452 274.679 305.035C281.144 295.619 281.189 318.247 280.403 330.738L279.471 329.975Z" stroke="#D52524" stroke-width="3"/>
<circle cx="9.87341" cy="9.87341" r="8.37341" transform="matrix(-0.866025 0.5 0.5 0.866025 171.433 262.612)" fill="#D52524" stroke="#D52524" stroke-width="3"/>
<circle cx="9.87341" cy="9.87341" r="8.37341" transform="matrix(-0.866025 0.5 0.5 0.866025 108.018 219.419)" fill="#D52524" stroke="#D52524" stroke-width="3"/>
<circle cx="9.87341" cy="9.87341" r="8.37341" transform="matrix(-0.866025 0.5 0.5 0.866025 164.261 336.583)" fill="#D52524" stroke="#D52524" stroke-width="3"/>
<path d="M170.914 315.31C173.813 309.901 178.297 298.154 173.042 294.437C167.787 290.719 169.434 306.803 170.914 315.31Z" fill="#D52524" stroke="#D52524" stroke-width="3"/>
<path d="M156.995 249.24C159.894 243.831 164.378 232.084 159.123 228.367C153.868 224.65 155.515 240.733 156.995 249.24Z" fill="#D52524" stroke="#D52524" stroke-width="3"/>
<path d="M195.512 407.99C189.379 407.796 176.964 405.806 176.372 399.397C175.78 392.987 188.886 402.455 195.512 407.99Z" fill="#D52524" stroke="#D52524" stroke-width="3"/>
<path d="M131.914 267.014C126.1 265.052 114.793 259.551 116.083 253.245C117.373 246.939 127.175 259.797 131.914 267.014Z" fill="#D52524" stroke="#D52524" stroke-width="3"/>
<path d="M206.78 89.7185C153.584 65.7071 142.529 47.958 143.651 42.0848C151.864 40.9061 175.987 48.7827 206.78 89.7185C230.351 100.358 243.698 128.521 250.724 161.255C229.243 155.606 188.801 142.995 198.881 137.745C208.961 132.495 237.643 151.231 250.724 161.255C243.698 128.521 230.351 100.358 206.78 89.7185Z" fill="#D52524"/>
<path d="M231.71 67.4871C220.973 76.5362 232.497 106.698 239.601 120.648L241.144 123.32C242.473 100.939 242.447 58.4381 231.71 67.4871Z" fill="#D52524"/>
<path d="M255.009 280.627C258.4 250.759 259.555 202.397 250.724 161.255M206.78 89.7185C153.584 65.7071 142.529 47.958 143.651 42.0848C151.864 40.9061 175.987 48.7827 206.78 89.7185ZM206.78 89.7185C230.351 100.358 243.698 128.521 250.724 161.255M250.724 161.255C237.643 151.231 208.961 132.495 198.881 137.745C188.801 142.995 229.243 155.606 250.724 161.255ZM239.601 120.648C232.497 106.698 220.973 76.5362 231.71 67.4871C242.447 58.4381 242.473 100.939 241.144 123.32L239.601 120.648Z" stroke="#D52524" stroke-width="3"/>
<path d="M200.116 215.147C224.802 192.356 224.051 184.214 220.59 182.992C214.526 185.206 201.943 194.737 200.116 215.147C189.177 225.246 193.189 236.873 203.556 247.775C215.39 239.652 236.76 223.831 227.565 225.534C218.369 227.237 207.727 241.071 203.556 247.775C193.189 236.873 189.177 225.246 200.116 215.147Z" fill="#D52524"/>
<path d="M173.111 216.89C184.499 215.999 190.658 227.599 192.313 233.51L192.508 234.699C181.298 229.134 161.723 217.781 173.111 216.89Z" fill="#D52524"/>
<path d="M255.703 280.959C239.656 274.031 216.586 261.476 203.556 247.775M200.116 215.147C224.802 192.356 224.051 184.214 220.59 182.992C214.526 185.206 201.943 194.737 200.116 215.147ZM200.116 215.147C189.177 225.246 193.189 236.873 203.556 247.775M203.556 247.775C207.727 241.071 218.369 227.237 227.565 225.534C236.76 223.831 215.39 239.652 203.556 247.775ZM192.313 233.51C190.658 227.599 184.499 215.999 173.111 216.89C161.723 217.781 181.298 229.134 192.508 234.699L192.313 233.51Z" stroke="#D52524" stroke-width="3"/>
<circle cx="200.172" cy="111.347" r="8.37341" transform="rotate(-30 200.172 111.347)" fill="#D52524" stroke="#D52524" stroke-width="3"/>
<circle cx="194.474" cy="34.8317" r="8.37341" transform="rotate(-30 194.474 34.8317)" fill="#D52524" stroke="#D52524" stroke-width="3"/>
<path d="M204.85 231.415C205.87 225.363 209.515 213.33 215.946 213.608C222.377 213.885 211.228 225.595 204.85 231.415Z" fill="#D52524" stroke="#D52524" stroke-width="3"/>
<path d="M190.27 210.123C186.776 205.078 180.987 193.916 185.786 189.626C190.585 185.336 190.775 201.503 190.27 210.123Z" fill="#D52524" stroke="#D52524" stroke-width="3"/>
<path d="M214.853 268.702C209.977 272.428 199.098 278.731 194.589 274.138C190.08 269.544 206.22 268.6 214.853 268.702Z" fill="#D52524" stroke="#D52524" stroke-width="3"/>
<path d="M232.582 133.633C226.448 133.439 214.033 131.449 213.441 125.039C212.849 118.63 225.955 128.098 232.582 133.633Z" fill="#D52524" stroke="#D52524" stroke-width="3"/>
<path d="M182.323 88.5445C176.189 88.3506 163.775 86.3603 163.183 79.9509C162.591 73.5415 175.696 83.0094 182.323 88.5445Z" fill="#D52524" stroke="#D52524" stroke-width="3"/>
<path d="M210.256 75.7111C211.464 69.6946 212.353 57.1527 206.247 55.1167C200.141 53.0807 206.375 67.9979 210.256 75.7111Z" fill="#D52524" stroke="#D52524" stroke-width="3"/>
</svg>
