<svg preserveAspectRatio="none" width="100%" height="100%" overflow="visible" style="display: block;" viewBox="0 0 279 468" fill="none" xmlns="http://www.w3.org/2000/svg">
<g id="Frame 60">
<g clip-path="url(#clip0_0_448)">
<path d="M0 32C0 14.3269 14.3269 0 32 0H279V468H32C14.3269 468 0 453.673 0 436V32Z" fill="var(--fill-0, #A51312)"/>
<g id="&#208;&#151;&#208;&#176;&#208;&#191;&#208;&#184;&#209;&#129;&#208;&#176;&#209;&#130;&#209;&#140;&#209;&#129;&#209;&#143;">
<path d="M80.7649 317L76.7676 312.26C81.2473 310.378 85.0378 305.219 85.0378 299.015C85.0378 292.114 80.3513 287.374 72.9081 287.374C65.327 287.374 60.2959 292.323 60.2959 300.34V304.592H55.5405V299.015C55.5405 295.181 53.1973 292.532 49.8203 292.532C46.4432 292.532 43.9622 295.251 43.9622 299.085C43.9622 302.222 45.6851 305.219 48.3041 306.474L45.6851 311.284C41.6189 308.844 39 304.034 39 298.876C39 292.184 43.273 286.816 49.6135 286.816C53.1973 286.816 55.6095 288.698 57.1946 291.278C59.8824 285.074 65.6027 281.588 72.9081 281.588C83.2459 281.588 90 288.559 90 299.364C90 307.729 85.9338 314.003 80.7649 317Z" fill="var(--fill-0, #FFFFF9)"/>
<path d="M88.6216 260.477L60.3649 263.544L60.3649 269.469L88.6216 272.536V278.113L40.3784 272.815L40.3784 260.198L88.6216 254.9V260.477ZM55.5405 268.912V264.102L45.2027 265.217V267.796L55.5405 268.912Z" fill="var(--fill-0, #FFFFF9)"/>
<path d="M88.6216 249.353L40.3784 249.353L40.3784 229.416H88.6216V234.993L45.2027 234.993L45.2027 243.776H88.6216V249.353Z" fill="var(--fill-0, #FFFFF9)"/>
<path d="M49.8203 209.498L60.4338 216.887H88.6216V222.464L40.3784 222.464L40.3784 216.887H51.6122L49.6135 215.911L40.3784 209.498L40.3784 203.921H88.6216V209.498H49.8203Z" fill="var(--fill-0, #FFFFF9)"/>
<path d="M64.5 198.33C48.7865 198.33 39.6892 194.635 39.6892 188.361C39.6892 184.597 42.9284 181.809 48.9243 180.136L50.5095 184.737C46.7878 185.503 44.6513 186.688 44.6513 188.083C44.6513 190.941 52.3013 192.614 64.4311 192.614C76.8365 192.614 84.3486 190.941 84.3486 188.083C84.3486 186.619 82.1432 185.434 78.2838 184.667L79.8689 180.066C86.0027 181.669 89.3108 184.528 89.3108 188.361C89.3108 194.705 80.2824 198.33 64.5 198.33Z" fill="var(--fill-0, #FFFFF9)"/>
<path d="M88.6216 159.318L60.3649 162.385V168.311L88.6216 171.378V176.954L40.3784 171.657L40.3784 159.039L88.6216 153.741V159.318ZM55.5405 167.753V162.943L45.2027 164.058V166.638L55.5405 167.753Z" fill="var(--fill-0, #FFFFF9)"/>
<path d="M88.6216 143.803H45.2027L45.2027 149.588H40.3784L40.3784 132.44H45.2027L45.2027 138.226H88.6216V143.803Z" fill="var(--fill-0, #FFFFF9)"/>
<path d="M88.6216 126.887H40.3784L40.3784 121.31H52.2324C52.8527 112.736 60.1581 107.857 70.8405 107.857C81.3162 107.857 87.9324 112.527 88.5527 121.31H88.6216V126.887ZM84.073 121.31C83.8662 116.222 78.904 113.573 70.7027 113.573C62.0878 113.573 56.9189 116.5 56.7122 121.31H84.073Z" fill="var(--fill-0, #FFFFF9)"/>
<path d="M64.5 103.706C48.7865 103.706 39.6892 100.012 39.6892 93.7379C39.6892 89.9736 42.9284 87.1853 48.9243 85.5123L50.5094 90.113C46.7878 90.8798 44.6513 92.0649 44.6513 93.459C44.6513 96.3171 52.3013 97.9901 64.4311 97.9901C76.8365 97.9901 84.3486 96.3171 84.3486 93.459C84.3486 91.9952 82.1432 90.8101 78.2838 90.0433L79.8689 85.4426C86.0027 87.0459 89.3108 89.9039 89.3108 93.7379C89.3108 100.081 80.2824 103.706 64.5 103.706Z" fill="var(--fill-0, #FFFFF9)"/>
<path d="M88.6216 66.5767L60.4338 66.5767C60.4338 67.0646 60.4338 67.4829 60.3649 67.9708L88.6216 76.6147V82.3307L59.2622 73.199C57.8838 76.6147 55.127 78.9847 50.5094 78.9847C44.1689 78.9847 40.3784 74.3143 40.3784 66.5767L40.3784 61L88.6216 61V66.5767ZM49.8892 73.4081C53.6108 73.4081 55.6094 70.4803 55.6094 66.5767L45.2027 66.5767C45.2027 71.2471 46.7189 73.4081 49.8892 73.4081Z" fill="var(--fill-0, #FFFFF9)"/>
</g>
<path id="Line 1" d="M0 385H279C268.667 381.462 261.778 377.923 261.778 362" stroke="var(--stroke-0, #FFFFF9)" stroke-width="16"/>
</g>
</g>
<defs>
<clipPath id="clip0_0_448">
<path d="M0 32C0 14.3269 14.3269 0 32 0H279V468H32C14.3269 468 0 453.673 0 436V32Z" fill="white"/>
</clipPath>
</defs>
</svg>
