<svg preserveAspectRatio="none" width="100%" height="100%" overflow="visible" style="display: block;" viewBox="0 0 282.095 353.093" fill="none" xmlns="http://www.w3.org/2000/svg">
<g id="Group 10">
<g id="Vector 1">
<path d="M226.491 74.6069C192.428 27.2145 191.729 6.31576 195.637 1.79044C203.339 4.87588 220.292 23.7588 226.491 74.6069C241.585 95.6062 239.062 126.669 228.78 158.531C213.001 142.898 184.283 111.756 195.637 112.249C206.991 112.743 222.463 143.309 228.78 158.531C239.062 126.669 241.585 95.6062 226.491 74.6069Z" fill="var(--fill-0, #A51312)"/>
<path d="M259.197 67.8189C245.374 70.2873 240.273 102.17 239.45 117.803V120.889C251.792 102.17 273.02 65.3506 259.197 67.8189Z" fill="var(--fill-0, #A51312)"/>
<path d="M172.805 264.053C190.675 239.882 215.856 198.576 228.78 158.531M226.491 74.6069C192.428 27.2145 191.729 6.31576 195.637 1.79044C203.339 4.87588 220.292 23.7588 226.491 74.6069ZM226.491 74.6069C241.585 95.6062 239.062 126.669 228.78 158.531M228.78 158.531C222.463 143.309 206.991 112.743 195.637 112.249C184.283 111.756 213.001 142.898 228.78 158.531ZM239.45 117.803C240.273 102.17 245.374 70.2873 259.197 67.8189C273.02 65.3506 251.792 102.17 239.45 120.889V117.803Z" stroke="var(--stroke-0, #A51312)" stroke-width="3"/>
</g>
<g id="Vector 2">
<path d="M243.163 217.484C228.376 188.67 231.715 181.139 235.232 180.975C239.971 184.833 248.19 197.535 243.163 217.484C249.715 230.252 242.3 240.158 229.397 247.538C221.392 236.392 207.313 215.168 215.04 219.443C222.767 223.719 227.831 239.955 229.397 247.538C242.3 240.158 249.715 230.252 243.163 217.484Z" fill="var(--fill-0, #A51312)"/>
<path d="M266.92 226.939C256.953 222.804 247.612 232.064 244.188 237.211L243.624 238.285C255.543 236.226 276.888 231.075 266.92 226.939Z" fill="var(--fill-0, #A51312)"/>
<path d="M171.571 264.06C188.292 262.1 213.179 256.814 229.397 247.538M243.163 217.484C228.376 188.67 231.715 181.139 235.232 180.975C239.971 184.833 248.19 197.535 243.163 217.484ZM243.163 217.484C249.715 230.252 242.3 240.158 229.397 247.538M229.397 247.538C227.831 239.955 222.767 223.719 215.04 219.443C207.313 215.168 221.392 236.392 229.397 247.538ZM244.188 237.211C247.612 232.064 256.953 222.804 266.92 226.939C276.888 231.075 255.543 236.226 243.624 238.285L244.188 237.211Z" stroke="var(--stroke-0, #A51312)" stroke-width="3"/>
</g>
<g id="Vector 3">
<path d="M158.481 180.517C191.256 173.122 194.676 165.695 192.289 162.906C185.931 161.792 170.268 163.755 158.481 180.517C143.959 183.793 141.619 195.869 145.146 210.493C159.456 209.375 185.873 206.359 177.059 203.236C168.244 200.114 152.111 206.773 145.146 210.493C141.619 195.869 143.959 183.793 158.481 180.517Z" fill="var(--fill-0, #A51312)"/>
<path d="M134.223 168.524C144.531 173.446 144.064 186.571 142.542 192.518L142.117 193.645C135.191 183.22 123.915 163.601 134.223 168.524Z" fill="var(--fill-0, #A51312)"/>
<path d="M173.715 265.305C163.282 251.281 149.58 228.874 145.146 210.493M158.481 180.517C191.256 173.122 194.676 165.695 192.289 162.906C185.931 161.792 170.268 163.755 158.481 180.517ZM158.481 180.517C143.959 183.793 141.619 195.869 145.146 210.493M145.146 210.493C152.111 206.773 168.244 200.114 177.059 203.236C185.873 206.359 159.456 209.375 145.146 210.493ZM142.542 192.518C144.064 186.571 144.531 173.446 134.223 168.524C123.915 163.601 135.191 183.22 142.117 193.645L142.542 192.518Z" stroke="var(--stroke-0, #A51312)" stroke-width="3"/>
</g>
<circle id="Ellipse 1" cx="212.298" cy="90.0341" r="8.37341" fill="var(--fill-0, #A51312)" stroke="var(--stroke-0, #A51312)" stroke-width="3"/>
<circle id="Ellipse 2" cx="245.621" cy="20.9202" r="8.37341" fill="var(--fill-0, #A51312)" stroke="var(--stroke-0, #A51312)" stroke-width="3"/>
<circle id="Ellipse 3" cx="255.495" cy="150.509" r="8.37341" fill="var(--fill-0, #A51312)" stroke="var(--stroke-0, #A51312)" stroke-width="3"/>
<path id="Vector 4" d="M34.8122 270.318C38.7204 265.587 47.8944 256.989 53.3248 260.445C58.7552 263.9 43.2457 268.467 34.8122 270.318Z" fill="var(--fill-0, #A51312)" stroke="var(--stroke-0, #A51312)" stroke-width="3"/>
<path id="Vector 5" d="M23.7484 246.44C23.2447 240.324 23.8126 227.764 30.1133 226.448C36.4141 225.132 28.4954 239.228 23.7484 246.44Z" fill="var(--fill-0, #A51312)" stroke="var(--stroke-0, #A51312)" stroke-width="3"/>
<path id="Vector 7" d="M21.8911 323.656C15.8055 324.445 3.23207 324.464 1.62358 318.231C0.0150916 311.999 14.4651 319.251 21.8911 323.656Z" fill="var(--fill-0, #A51312)" stroke="var(--stroke-0, #A51312)" stroke-width="3"/>
<path id="Vector 8" d="M229.223 125.539C224.008 122.304 214.252 114.373 216.944 108.526C219.636 102.679 226.252 117.432 229.223 125.539Z" fill="var(--fill-0, #A51312)" stroke="var(--stroke-0, #A51312)" stroke-width="3"/>
<path id="Vector 9" d="M208.242 61.3614C203.027 58.1268 193.271 50.1957 195.963 44.349C198.655 38.5023 205.271 53.2545 208.242 61.3614Z" fill="var(--fill-0, #A51312)" stroke="var(--stroke-0, #A51312)" stroke-width="3"/>
<path id="Vector 10" d="M83.8254 322.303C78.6107 319.068 68.8542 311.137 71.5462 305.291C74.2382 299.444 80.854 314.196 83.8254 322.303Z" fill="var(--fill-0, #A51312)" stroke="var(--stroke-0, #A51312)" stroke-width="3"/>
<path id="Vector 11" d="M254.26 218.102C259.475 214.867 269.232 206.936 266.54 201.089C263.848 195.243 257.232 209.995 254.26 218.102Z" fill="var(--fill-0, #A51312)" stroke="var(--stroke-0, #A51312)" stroke-width="3"/>
<path id="Vector 12" d="M227.584 253.238C232.913 256.281 244.535 261.079 248.392 255.926C252.249 250.773 236.127 251.987 227.584 253.238Z" fill="var(--fill-0, #A51312)" stroke="var(--stroke-0, #A51312)" stroke-width="3"/>
<path id="Vector 13" d="M78.0083 343.111C83.3371 346.154 94.9591 350.952 98.8164 345.799C102.674 340.647 86.5516 341.86 78.0083 343.111Z" fill="var(--fill-0, #A51312)" stroke="var(--stroke-0, #A51312)" stroke-width="3"/>
<path id="Vector 14" d="M238.85 64.2141C242.904 59.6077 249.945 49.1906 245.675 44.3743C241.405 39.558 239.346 55.5941 238.85 64.2141Z" fill="var(--fill-0, #A51312)" stroke="var(--stroke-0, #A51312)" stroke-width="3"/>
</g>
</svg>
