<svg preserveAspectRatio="none" width="100%" height="100%" overflow="visible" style="display: block;" viewBox="0 0 309.591 372.724" fill="none" xmlns="http://www.w3.org/2000/svg">
<g id="Group 12">
<g id="Vector 1">
<path d="M123.275 74.6069C89.212 27.2145 88.5127 6.31576 92.4209 1.79044C100.122 4.87588 117.076 23.7588 123.275 74.6069C138.369 95.6062 135.846 126.669 125.564 158.531C109.785 142.898 81.0665 111.756 92.4209 112.249C103.775 112.743 119.247 143.309 125.564 158.531C135.846 126.669 138.369 95.6062 123.275 74.6069Z" fill="var(--fill-0, #A51312)"/>
<path d="M155.981 67.8189C142.158 70.2873 137.057 102.17 136.234 117.803V120.889C148.576 102.17 169.804 65.3506 155.981 67.8189Z" fill="var(--fill-0, #A51312)"/>
<path d="M69.5886 264.053C87.4589 239.882 112.64 198.576 125.564 158.531M123.275 74.6069C89.212 27.2145 88.5127 6.31576 92.4209 1.79044C100.122 4.87588 117.076 23.7588 123.275 74.6069ZM123.275 74.6069C138.369 95.6062 135.846 126.669 125.564 158.531M125.564 158.531C119.247 143.309 103.775 112.743 92.4209 112.249C81.0665 111.756 109.785 142.898 125.564 158.531ZM136.234 117.803C137.057 102.17 142.158 70.2873 155.981 67.8189C169.804 65.3506 148.576 102.17 136.234 120.889V117.803Z" stroke="var(--stroke-0, #A51312)" stroke-width="3"/>
</g>
<g id="Vector 2">
<path d="M270.659 293.299C255.871 264.485 259.21 256.954 262.728 256.79C267.466 260.648 275.686 273.35 270.659 293.299C277.211 306.067 269.796 315.973 256.892 323.353C248.887 312.207 234.809 290.983 242.536 295.258C250.262 299.534 255.326 315.77 256.892 323.353C269.796 315.973 277.211 306.067 270.659 293.299Z" fill="var(--fill-0, #A51312)"/>
<path d="M294.416 302.754C284.448 298.619 275.108 307.879 271.684 313.026L271.12 314.1C283.038 312.041 304.383 306.89 294.416 302.754Z" fill="var(--fill-0, #A51312)"/>
<path d="M199.066 339.875C215.788 337.915 240.675 332.629 256.892 323.353M270.659 293.299C255.871 264.485 259.21 256.954 262.728 256.79C267.466 260.648 275.686 273.35 270.659 293.299ZM270.659 293.299C277.211 306.067 269.796 315.973 256.892 323.353M256.892 323.353C255.326 315.77 250.262 299.534 242.536 295.258C234.809 290.983 248.887 312.207 256.892 323.353ZM271.684 313.026C275.108 307.879 284.448 298.619 294.416 302.754C304.383 306.89 283.038 312.041 271.12 314.1L271.684 313.026Z" stroke="var(--stroke-0, #A51312)" stroke-width="3"/>
</g>
<g id="Vector 3">
<path d="M54.7903 179.899C87.5649 172.505 90.9853 165.078 88.5987 162.289C82.2405 161.175 66.5774 163.137 54.7903 179.899C40.268 183.176 37.928 195.252 41.4555 209.876C55.7657 208.758 82.1825 205.742 73.3678 202.619C64.5531 199.496 48.4202 206.156 41.4555 209.876C37.928 195.252 40.268 183.176 54.7903 179.899Z" fill="var(--fill-0, #A51312)"/>
<path d="M30.5322 167.907C40.8399 172.829 40.3733 185.954 38.8515 191.901L38.4261 193.028C31.4999 182.603 20.2245 162.984 30.5322 167.907Z" fill="var(--fill-0, #A51312)"/>
<path d="M70.0243 264.688C59.5912 250.664 45.889 228.257 41.4555 209.876M54.7903 179.899C87.5649 172.505 90.9853 165.078 88.5987 162.289C82.2405 161.175 66.5774 163.137 54.7903 179.899ZM54.7903 179.899C40.268 183.176 37.928 195.252 41.4555 209.876M41.4555 209.876C48.4202 206.156 64.5531 199.496 73.3678 202.619C82.1825 205.742 55.7657 208.758 41.4555 209.876ZM38.8515 191.901C40.3733 185.954 40.8399 172.829 30.5322 167.907C20.2245 162.984 31.4999 182.603 38.4261 193.028L38.8515 191.901Z" stroke="var(--stroke-0, #A51312)" stroke-width="3"/>
</g>
<circle id="Ellipse 1" cx="106.738" cy="90.0341" r="8.37341" fill="var(--fill-0, #A51312)" stroke="var(--stroke-0, #A51312)" stroke-width="3"/>
<circle id="Ellipse 2" cx="140.061" cy="20.9202" r="8.37341" fill="var(--fill-0, #A51312)" stroke="var(--stroke-0, #A51312)" stroke-width="3"/>
<circle id="Ellipse 3" cx="280.522" cy="226.324" r="8.37341" fill="var(--fill-0, #A51312)" stroke="var(--stroke-0, #A51312)" stroke-width="3"/>
<path id="Vector 4" d="M50.7563 196.354C54.6645 191.623 63.8386 183.025 69.2689 186.481C74.6993 189.937 59.1898 194.503 50.7563 196.354Z" fill="var(--fill-0, #A51312)" stroke="var(--stroke-0, #A51312)" stroke-width="3"/>
<path id="Vector 5" d="M48.7756 170.625C48.272 164.509 48.8398 151.949 55.1405 150.633C61.4413 149.317 53.5226 163.413 48.7756 170.625Z" fill="var(--fill-0, #A51312)" stroke="var(--stroke-0, #A51312)" stroke-width="3"/>
<path id="Vector 7" d="M40.7756 233.648C34.69 234.437 22.1166 234.456 20.5081 228.223C18.8996 221.991 33.3495 229.243 40.7756 233.648Z" fill="var(--fill-0, #A51312)" stroke="var(--stroke-0, #A51312)" stroke-width="3"/>
<path id="Vector 8" d="M123.663 125.539C118.448 122.304 108.692 114.373 111.384 108.526C114.076 102.679 120.691 117.432 123.663 125.539Z" fill="var(--fill-0, #A51312)" stroke="var(--stroke-0, #A51312)" stroke-width="3"/>
<path id="Vector 9" d="M102.682 61.3614C97.467 58.1268 87.7105 50.1957 90.4025 44.349C93.0945 38.5023 99.7103 53.2545 102.682 61.3614Z" fill="var(--fill-0, #A51312)" stroke="var(--stroke-0, #A51312)" stroke-width="3"/>
<path id="Vector 10" d="M246.845 324.771C241.63 321.537 231.874 313.606 234.566 307.759C237.258 301.912 243.874 316.664 246.845 324.771Z" fill="var(--fill-0, #A51312)" stroke="var(--stroke-0, #A51312)" stroke-width="3"/>
<path id="Vector 11" d="M279.288 293.917C284.502 290.682 294.259 282.751 291.567 276.904C288.875 271.058 282.259 285.81 279.288 293.917Z" fill="var(--fill-0, #A51312)" stroke="var(--stroke-0, #A51312)" stroke-width="3"/>
<path id="Vector 12" d="M252.611 329.053C257.94 332.096 269.562 336.894 273.419 331.741C277.277 326.588 261.155 327.802 252.611 329.053Z" fill="var(--fill-0, #A51312)" stroke="var(--stroke-0, #A51312)" stroke-width="3"/>
<path id="Vector 13" d="M236.091 338.175C241.42 341.218 253.042 346.016 256.899 340.863C260.757 335.71 244.635 336.924 236.091 338.175Z" fill="var(--fill-0, #A51312)" stroke="var(--stroke-0, #A51312)" stroke-width="3"/>
<path id="Vector 14" d="M133.29 64.2141C137.344 59.6077 144.385 49.1906 140.115 44.3743C135.845 39.558 133.786 55.5941 133.29 64.2141Z" fill="var(--fill-0, #A51312)" stroke="var(--stroke-0, #A51312)" stroke-width="3"/>
</g>
</svg>
