<svg preserveAspectRatio="none" width="100%" height="100%" overflow="visible" style="display: block;" viewBox="0 0 178.405 296.909" fill="none" xmlns="http://www.w3.org/2000/svg">
<g id="Group 9">
<g id="Vector 1">
<path d="M122.801 74.6069C88.7373 27.2145 88.0379 6.31576 91.9461 1.79044C99.6477 4.87588 116.601 23.7588 122.801 74.6069C137.894 95.6062 135.371 126.669 125.089 158.531C109.31 142.898 80.5917 111.756 91.9461 112.249C103.301 112.743 118.772 143.309 125.089 158.531C135.371 126.669 137.894 95.6062 122.801 74.6069Z" fill="var(--fill-0, #A51312)"/>
<path d="M155.506 67.8189C141.683 70.2873 136.582 102.17 135.759 117.803V120.889C148.101 102.17 169.329 65.3506 155.506 67.8189Z" fill="var(--fill-0, #A51312)"/>
<path d="M69.1138 264.053C86.9842 239.882 112.165 198.576 125.089 158.531M122.801 74.6069C88.7373 27.2145 88.0379 6.31576 91.9461 1.79044C99.6477 4.87588 116.601 23.7588 122.801 74.6069ZM122.801 74.6069C137.894 95.6062 135.371 126.669 125.089 158.531M125.089 158.531C118.772 143.309 103.301 112.743 91.9461 112.249C80.5917 111.756 109.31 142.898 125.089 158.531ZM135.759 117.803C136.582 102.17 141.683 70.2873 155.506 67.8189C169.329 65.3506 148.101 102.17 135.759 120.889V117.803Z" stroke="var(--stroke-0, #A51312)" stroke-width="3"/>
</g>
<g id="Vector 2">
<path d="M139.472 217.484C124.685 188.67 128.024 181.139 131.542 180.975C136.28 184.833 144.499 197.535 139.472 217.484C146.024 230.252 138.609 240.158 125.706 247.538C117.701 236.392 103.622 215.168 111.349 219.443C119.076 223.719 124.14 239.955 125.706 247.538C138.609 240.158 146.024 230.252 139.472 217.484Z" fill="var(--fill-0, #A51312)"/>
<path d="M163.229 226.939C153.262 222.804 143.922 232.064 140.497 237.211L139.933 238.285C151.852 236.226 173.197 231.075 163.229 226.939Z" fill="var(--fill-0, #A51312)"/>
<path d="M67.8797 264.06C84.6011 262.1 109.488 256.814 125.706 247.538M139.472 217.484C124.685 188.67 128.024 181.139 131.542 180.975C136.28 184.833 144.499 197.535 139.472 217.484ZM139.472 217.484C146.024 230.252 138.609 240.158 125.706 247.538M125.706 247.538C124.14 239.955 119.076 223.719 111.349 219.443C103.622 215.168 117.701 236.392 125.706 247.538ZM140.497 237.211C143.922 232.064 153.262 222.804 163.229 226.939C173.197 231.075 151.852 236.226 139.933 238.285L140.497 237.211Z" stroke="var(--stroke-0, #A51312)" stroke-width="3"/>
</g>
<g id="Vector 3">
<path d="M54.7902 180.517C87.5648 173.122 90.9852 165.695 88.5986 162.906C82.2405 161.792 66.5773 163.755 54.7902 180.517C40.2679 183.793 37.928 195.869 41.4554 210.493C55.7657 209.375 82.1824 206.359 73.3678 203.236C64.5531 200.114 48.4201 206.773 41.4554 210.493C37.928 195.869 40.2679 183.793 54.7902 180.517Z" fill="var(--fill-0, #A51312)"/>
<path d="M30.5321 168.524C40.8398 173.446 40.3732 186.571 38.8514 192.518L38.426 193.645C31.4998 183.22 20.2244 163.601 30.5321 168.524Z" fill="var(--fill-0, #A51312)"/>
<path d="M70.0242 265.305C59.5911 251.281 45.8889 228.874 41.4554 210.493M54.7902 180.517C87.5648 173.122 90.9852 165.695 88.5986 162.906C82.2405 161.792 66.5773 163.755 54.7902 180.517ZM54.7902 180.517C40.2679 183.793 37.928 195.869 41.4554 210.493M41.4554 210.493C48.4201 206.773 64.5531 200.114 73.3678 203.236C82.1824 206.359 55.7657 209.375 41.4554 210.493ZM38.8514 192.518C40.3732 186.571 40.8398 173.446 30.5321 168.524C20.2244 163.601 31.4998 183.22 38.426 193.645L38.8514 192.518Z" stroke="var(--stroke-0, #A51312)" stroke-width="3"/>
</g>
<circle id="Ellipse 1" cx="108.608" cy="90.0341" r="8.37341" fill="var(--fill-0, #A51312)" stroke="var(--stroke-0, #A51312)" stroke-width="3"/>
<circle id="Ellipse 2" cx="141.93" cy="20.9202" r="8.37341" fill="var(--fill-0, #A51312)" stroke="var(--stroke-0, #A51312)" stroke-width="3"/>
<circle id="Ellipse 3" cx="151.804" cy="150.509" r="8.37341" fill="var(--fill-0, #A51312)" stroke="var(--stroke-0, #A51312)" stroke-width="3"/>
<path id="Vector 4" d="M61.7088 194.503C65.617 189.772 74.7911 181.174 80.2214 184.63C85.6518 188.085 70.1423 192.652 61.7088 194.503Z" fill="var(--fill-0, #A51312)" stroke="var(--stroke-0, #A51312)" stroke-width="3"/>
<path id="Vector 5" d="M50.6451 170.625C50.1414 164.509 50.7092 151.949 57.01 150.633C63.3107 149.317 55.392 163.413 50.6451 170.625Z" fill="var(--fill-0, #A51312)" stroke="var(--stroke-0, #A51312)" stroke-width="3"/>
<path id="Vector 7" d="M48.7877 247.841C42.7021 248.63 30.1287 248.649 28.5202 242.416C26.9117 236.184 41.3617 243.436 48.7877 247.841Z" fill="var(--fill-0, #A51312)" stroke="var(--stroke-0, #A51312)" stroke-width="3"/>
<path id="Vector 8" d="M125.532 125.539C120.317 122.304 110.561 114.373 113.253 108.526C115.945 102.679 122.561 117.432 125.532 125.539Z" fill="var(--fill-0, #A51312)" stroke="var(--stroke-0, #A51312)" stroke-width="3"/>
<path id="Vector 9" d="M104.551 61.3614C99.3364 58.1268 89.5799 50.1957 92.2719 44.349C94.9639 38.5023 101.58 53.2545 104.551 61.3614Z" fill="var(--fill-0, #A51312)" stroke="var(--stroke-0, #A51312)" stroke-width="3"/>
<path id="Vector 10" d="M110.722 246.488C105.507 243.253 95.7508 235.322 98.4428 229.476C101.135 223.629 107.751 238.381 110.722 246.488Z" fill="var(--fill-0, #A51312)" stroke="var(--stroke-0, #A51312)" stroke-width="3"/>
<path id="Vector 11" d="M150.57 218.102C155.784 214.867 165.541 206.936 162.849 201.089C160.157 195.243 153.541 209.995 150.57 218.102Z" fill="var(--fill-0, #A51312)" stroke="var(--stroke-0, #A51312)" stroke-width="3"/>
<path id="Vector 12" d="M123.893 253.238C129.222 256.281 140.844 261.079 144.701 255.926C148.559 250.773 132.436 251.987 123.893 253.238Z" fill="var(--fill-0, #A51312)" stroke="var(--stroke-0, #A51312)" stroke-width="3"/>
<path id="Vector 13" d="M104.905 267.296C110.234 270.339 121.856 275.137 125.713 269.984C129.57 264.832 113.448 266.045 104.905 267.296Z" fill="var(--fill-0, #A51312)" stroke="var(--stroke-0, #A51312)" stroke-width="3"/>
<path id="Vector 14" d="M135.159 64.2141C139.213 59.6077 146.254 49.1906 141.984 44.3743C137.714 39.558 135.655 55.5941 135.159 64.2141Z" fill="var(--fill-0, #A51312)" stroke="var(--stroke-0, #A51312)" stroke-width="3"/>
</g>
</svg>
