<svg width="289" height="715" viewBox="0 0 289 715" fill="none" xmlns="http://www.w3.org/2000/svg">
<path d="M147.815 410.838C153.618 352.763 143.774 334.315 138.127 332.35C133 338.873 127.76 363.702 147.815 410.838C145.243 436.57 162.959 462.211 187.795 484.662C193.643 463.235 202.943 421.905 193.356 428.01C183.77 434.115 185.654 468.322 187.795 484.662C162.959 462.211 145.243 436.57 147.815 410.838Z" fill="#D52524"/>
<path d="M116.097 421.312C129.302 416.538 149.661 441.599 158.19 454.726L159.733 457.398C139.685 447.359 102.892 426.086 116.097 421.312Z" fill="#D52524"/>
<path d="M289.032 548.06C261.47 536.062 219.009 512.881 187.795 484.662M147.815 410.838C153.618 352.763 143.774 334.315 138.127 332.35C133 338.873 127.76 363.702 147.815 410.838ZM147.815 410.838C145.243 436.57 162.959 462.211 187.795 484.662M187.795 484.662C185.654 468.322 183.77 434.115 193.356 428.01C202.943 421.905 193.643 463.235 187.795 484.662ZM158.19 454.726C149.661 441.599 129.302 416.538 116.097 421.312C102.892 426.086 139.685 447.359 159.733 457.398L158.19 454.726Z" stroke="#D52524" stroke-width="3"/>
<path d="M204.815 542.908C203.214 510.561 196.557 505.708 193.429 507.325C191.254 513.035 190.487 528.146 204.815 542.908C205.524 557.242 216.899 562.113 231.764 562.053C233.124 548.398 234.704 522.978 230.15 530.544C225.596 538.11 229.329 554.702 231.764 562.053C216.899 562.113 205.524 557.242 204.815 542.908Z" fill="#D52524"/>
<path d="M188.968 562.975C195.533 554.41 208.252 557.759 213.791 560.505L214.816 561.153C203.465 565.33 182.404 571.541 188.968 562.975Z" fill="#D52524"/>
<path d="M290.104 547.448C274.643 554.111 250.447 561.977 231.764 562.053M204.815 542.908C203.214 510.561 196.557 505.708 193.429 507.325C191.254 513.035 190.487 528.146 204.815 542.908ZM204.815 542.908C205.524 557.242 216.899 562.113 231.764 562.053M231.764 562.053C229.329 554.702 225.596 538.11 230.15 530.544C234.704 522.978 233.124 548.398 231.764 562.053ZM213.791 560.505C208.252 557.759 195.533 554.41 188.968 562.975C182.404 571.541 203.465 565.329 214.816 561.153L213.791 560.505Z" stroke="#D52524" stroke-width="3"/>
<path d="M259.667 468.551C227.586 478.534 220.91 473.812 221.583 470.204C226.532 466.06 241.078 459.928 259.667 468.551C273.882 464.127 281.946 473.415 286.203 487.844C273.252 494.031 248.866 504.627 254.938 497.515C261.011 490.404 278.312 488.104 286.203 487.844C281.946 473.415 273.882 464.127 259.667 468.551Z" fill="#D52524"/>
<path d="M274.679 446.035C268.213 455.452 275.18 466.586 279.471 470.975L280.403 471.738C281.189 459.247 281.144 436.619 274.679 446.035Z" fill="#D52524"/>
<path d="M288.868 549.597C290.892 532.235 291.554 505.979 286.203 487.844M259.667 468.551C227.586 478.534 220.91 473.812 221.583 470.204C226.532 466.06 241.078 459.928 259.667 468.551ZM259.667 468.551C273.882 464.127 281.946 473.415 286.203 487.844M286.203 487.844C278.312 488.104 261.011 490.404 254.938 497.515C248.866 504.627 273.252 494.031 286.203 487.844ZM279.471 470.975C275.18 466.586 268.213 455.452 274.679 446.035C281.144 436.619 281.189 459.247 280.403 471.738L279.471 470.975Z" stroke="#D52524" stroke-width="3"/>
<circle cx="9.87341" cy="9.87341" r="8.37341" transform="matrix(-0.866025 0.5 0.5 0.866025 171.434 403.613)" fill="#D52524" stroke="#D52524" stroke-width="3"/>
<circle cx="9.87341" cy="9.87341" r="8.37341" transform="matrix(-0.866025 0.5 0.5 0.866025 108.018 360.418)" fill="#D52524" stroke="#D52524" stroke-width="3"/>
<circle cx="9.87341" cy="9.87341" r="8.37341" transform="matrix(-0.866025 0.5 0.5 0.866025 164.262 477.582)" fill="#D52524" stroke="#D52524" stroke-width="3"/>
<path d="M170.914 456.311C173.813 450.902 178.297 439.155 173.042 435.438C167.787 431.72 169.434 447.804 170.914 456.311Z" fill="#D52524" stroke="#D52524" stroke-width="3"/>
<path d="M156.996 390.24C159.895 384.832 164.379 373.085 159.124 369.367C153.869 365.65 155.516 381.734 156.996 390.24Z" fill="#D52524" stroke="#D52524" stroke-width="3"/>
<path d="M195.512 548.99C189.379 548.796 176.964 546.806 176.372 540.397C175.78 533.987 188.886 543.455 195.512 548.99Z" fill="#D52524" stroke="#D52524" stroke-width="3"/>
<path d="M236.184 566.082C233.09 571.381 225.424 581.348 219.508 578.814C213.591 576.28 228.16 569.27 236.184 566.082Z" fill="#D52524" stroke="#D52524" stroke-width="3"/>
<path d="M131.914 408.015C126.1 406.053 114.793 400.552 116.083 394.246C117.373 387.94 127.175 400.798 131.914 408.015Z" fill="#D52524" stroke="#D52524" stroke-width="3"/>
<path d="M206.779 230.718C153.583 206.706 142.528 188.957 143.65 183.084C151.863 181.905 175.986 189.782 206.779 230.718C230.35 241.357 243.697 269.52 250.723 302.254C229.242 296.605 188.8 283.994 198.88 278.744C208.96 273.494 237.642 292.23 250.723 302.254C243.697 269.52 230.35 241.357 206.779 230.718Z" fill="#D52524"/>
<path d="M231.709 208.486C220.972 217.535 232.496 247.697 239.6 261.647L241.143 264.319C242.472 241.938 242.446 199.437 231.709 208.486Z" fill="#D52524"/>
<path d="M255.008 421.626C258.399 391.758 259.554 343.396 250.723 302.254M206.779 230.718C153.583 206.706 142.528 188.957 143.65 183.084C151.863 181.905 175.986 189.782 206.779 230.718ZM206.779 230.718C230.35 241.357 243.697 269.52 250.723 302.254M250.723 302.254C237.642 292.23 208.96 273.494 198.88 278.744C188.8 283.994 229.242 296.605 250.723 302.254ZM239.6 261.647C232.496 247.697 220.972 217.535 231.709 208.486C242.446 199.437 242.472 241.938 241.143 264.319L239.6 261.647Z" stroke="#D52524" stroke-width="3"/>
<path d="M200.116 356.147C224.802 333.355 224.051 325.213 220.59 323.991C214.526 326.205 201.943 335.737 200.116 356.147C189.177 366.245 193.189 377.873 203.556 388.774C215.39 380.651 236.76 364.831 227.565 366.534C218.369 368.237 207.727 382.07 203.556 388.774C193.189 377.873 189.177 366.245 200.116 356.147Z" fill="#D52524"/>
<path d="M173.111 357.889C184.499 356.999 190.658 368.598 192.313 374.51L192.508 375.698C181.298 370.133 161.723 358.78 173.111 357.889Z" fill="#D52524"/>
<path d="M255.703 421.959C239.656 415.03 216.586 402.476 203.556 388.774M200.116 356.147C224.802 333.355 224.051 325.213 220.59 323.991C214.526 326.205 201.943 335.737 200.116 356.147ZM200.116 356.147C189.177 366.245 193.189 377.873 203.556 388.774M203.556 388.774C207.727 382.07 218.369 368.237 227.565 366.534C236.76 364.831 215.39 380.651 203.556 388.774ZM192.313 374.51C190.658 368.598 184.499 356.999 173.111 357.889C161.723 358.78 181.298 370.133 192.508 375.698L192.313 374.51Z" stroke="#D52524" stroke-width="3"/>
<circle cx="200.171" cy="252.348" r="8.37341" transform="rotate(-30 200.171 252.348)" fill="#D52524" stroke="#D52524" stroke-width="3"/>
<circle cx="194.474" cy="175.833" r="8.37341" transform="rotate(-30 194.474 175.833)" fill="#D52524" stroke="#D52524" stroke-width="3"/>
<path d="M204.849 372.414C205.869 366.362 209.515 354.329 215.945 354.607C222.376 354.884 211.228 366.594 204.849 372.414Z" fill="#D52524" stroke="#D52524" stroke-width="3"/>
<path d="M190.27 351.124C186.776 346.079 180.987 334.918 185.786 330.628C190.585 326.338 190.775 342.504 190.27 351.124Z" fill="#D52524" stroke="#D52524" stroke-width="3"/>
<path d="M214.852 409.702C209.976 413.428 199.097 419.731 194.588 415.138C190.079 410.544 206.219 409.6 214.852 409.702Z" fill="#D52524" stroke="#D52524" stroke-width="3"/>
<path d="M232.581 274.635C226.447 274.441 214.032 272.451 213.44 266.041C212.848 259.632 225.954 269.1 232.581 274.635Z" fill="#D52524" stroke="#D52524" stroke-width="3"/>
<path d="M182.323 229.545C176.189 229.351 163.775 227.361 163.183 220.951C162.591 214.542 175.696 224.01 182.323 229.545Z" fill="#D52524" stroke="#D52524" stroke-width="3"/>
<path d="M210.256 216.713C211.464 210.697 212.353 198.155 206.247 196.119C200.141 194.083 206.375 209 210.256 216.713Z" fill="#D52524" stroke="#D52524" stroke-width="3"/>
</svg>
